<svg id="svg" version="1.1" xmlns="http://www.w3.org/2000/svg" xmlns:xlink="http://www.w3.org/1999/xlink" width="400" height="400" viewBox="0, 0, 400,400"><g id="svgg"><path id="path0" d="M394.000 195.484 C 393.329 195.602,384.448 204.197,367.000 221.615 C 352.700 235.890,331.452 257.072,319.781 268.685 C 308.111 280.298,298.166 290.368,297.681 291.062 C 296.663 292.520,296.521 294.000,297.400 294.000 C 297.773 294.000,298.000 294.378,298.000 295.000 C 298.000 295.800,298.200 296.000,299.000 296.000 C 299.800 296.000,300.000 296.200,300.000 297.000 C 300.000 297.800,300.200 298.000,301.000 298.000 C 301.800 298.000,302.000 298.200,302.000 299.000 C 302.000 299.800,302.200 300.000,303.000 300.000 C 303.800 300.000,304.000 300.200,304.000 301.000 C 304.000 301.800,304.200 302.000,305.000 302.000 C 305.800 302.000,306.000 302.200,306.000 303.000 C 306.000 303.714,306.216 304.000,306.757 304.000 C 307.230 304.000,307.607 304.374,307.764 305.000 C 307.926 305.646,308.296 306.000,308.808 306.000 C 309.333 306.000,309.600 306.269,309.600 306.800 C 309.600 307.387,309.867 307.600,310.600 307.600 C 311.400 307.600,311.600 307.800,311.600 308.600 C 311.600 309.400,311.800 309.600,312.600 309.600 C 313.400 309.600,313.600 309.800,313.600 310.600 C 313.600 311.400,313.800 311.600,314.600 311.600 C 315.400 311.600,315.600 311.800,315.600 312.600 C 315.600 313.400,315.800 313.600,316.600 313.600 C 317.400 313.600,317.600 313.800,317.600 314.600 C 317.600 315.400,317.800 315.600,318.600 315.600 C 319.400 315.600,319.600 315.800,319.600 316.600 C 319.600 317.321,319.815 317.600,320.372 317.600 C 320.868 317.600,321.190 317.922,321.272 318.500 C 321.354 319.078,321.722 319.446,322.300 319.528 C 322.878 319.610,323.200 319.932,323.200 320.428 C 323.200 320.985,323.479 321.200,324.200 321.200 C 325.000 321.200,325.200 321.400,325.200 322.200 C 325.200 323.000,325.400 323.200,326.200 323.200 C 327.000 323.200,327.200 323.400,327.200 324.200 C 327.200 325.000,327.400 325.200,328.200 325.200 C 329.000 325.200,329.200 325.400,329.200 326.200 C 329.200 327.000,329.400 327.200,330.200 327.200 C 331.000 327.200,331.200 327.400,331.200 328.200 C 331.200 329.000,331.400 329.200,332.200 329.200 C 333.000 329.200,333.200 329.400,333.200 330.200 C 333.200 330.921,333.415 331.200,333.972 331.200 C 334.468 331.200,334.790 331.522,334.872 332.100 C 334.954 332.678,335.322 333.046,335.900 333.128 C 336.478 333.210,336.800 333.532,336.800 334.028 C 336.800 334.585,337.079 334.800,337.800 334.800 C 338.600 334.800,338.800 335.000,338.800 335.800 C 338.800 336.600,339.000 336.800,339.800 336.800 C 340.600 336.800,340.800 337.000,340.800 337.800 C 340.800 338.600,341.000 338.800,341.800 338.800 C 342.600 338.800,342.800 339.000,342.800 339.800 C 342.800 340.600,343.000 340.800,343.800 340.800 C 344.600 340.800,344.800 341.000,344.800 341.800 C 344.800 342.600,345.000 342.800,345.800 342.800 C 346.600 342.800,346.800 343.000,346.800 343.800 C 346.800 344.521,347.015 344.800,347.572 344.800 C 348.068 344.800,348.390 345.122,348.472 345.700 C 348.554 346.278,348.922 346.646,349.500 346.728 C 350.078 346.810,350.400 347.132,350.400 347.628 C 350.400 348.185,350.679 348.400,351.400 348.400 C 352.200 348.400,352.400 348.600,352.400 349.400 C 352.400 350.200,352.600 350.400,353.400 350.400 C 354.200 350.400,354.400 350.600,354.400 351.400 C 354.400 352.200,354.600 352.400,355.400 352.400 C 356.200 352.400,356.400 352.600,356.400 353.400 C 356.400 354.200,356.600 354.400,357.400 354.400 C 358.200 354.400,358.400 354.600,358.400 355.400 C 358.400 356.200,358.600 356.400,359.400 356.400 C 360.200 356.400,360.400 356.600,360.400 357.400 C 360.400 358.133,360.613 358.400,361.200 358.400 C 361.733 358.400,362.000 358.667,362.000 359.200 C 362.000 359.787,362.267 360.000,363.000 360.000 C 363.800 360.000,364.000 360.200,364.000 361.000 C 364.000 361.800,364.200 362.000,365.000 362.000 C 365.800 362.000,366.000 362.200,366.000 363.000 C 366.000 363.800,366.200 364.000,367.000 364.000 C 367.800 364.000,368.000 364.200,368.000 365.000 C 368.000 365.800,368.200 366.000,369.000 366.000 C 369.800 366.000,370.000 366.200,370.000 367.000 C 370.000 367.800,370.200 368.000,371.000 368.000 C 371.800 368.000,372.000 368.200,372.000 369.000 C 372.000 369.730,372.214 370.000,372.792 370.000 C 373.304 370.000,373.674 370.354,373.836 371.000 C 373.993 371.626,374.370 372.000,374.843 372.000 C 375.333 372.000,375.600 372.282,375.600 372.800 C 375.600 373.387,375.867 373.600,376.600 373.600 C 377.400 373.600,377.600 373.800,377.600 374.600 C 377.600 375.400,377.800 375.600,378.600 375.600 C 379.400 375.600,379.600 375.800,379.600 376.600 C 379.600 377.400,379.800 377.600,380.600 377.600 C 381.400 377.600,381.600 377.800,381.600 378.600 C 381.600 379.400,381.800 379.600,382.600 379.600 C 383.400 379.600,383.600 379.800,383.600 380.600 C 383.600 381.400,383.800 381.600,384.600 381.600 C 385.400 381.600,385.600 381.800,385.600 382.600 C 385.600 383.314,385.816 383.600,386.357 383.600 C 386.830 383.600,387.207 383.974,387.364 384.600 C 387.526 385.246,387.896 385.600,388.408 385.600 C 388.933 385.600,389.200 385.869,389.200 386.400 C 389.200 386.987,389.467 387.200,390.200 387.200 C 391.000 387.200,391.200 387.400,391.200 388.200 C 391.200 389.133,391.333 389.200,393.200 389.200 L 395.200 389.200 395.200 292.200 C 395.200 238.850,395.155 195.225,395.100 195.254 C 395.045 195.284,394.550 195.388,394.000 195.484 M276.400 314.567 C 276.400 314.878,276.175 315.224,275.900 315.335 C 275.601 315.456,275.682 315.550,276.100 315.568 C 276.544 315.588,276.800 315.307,276.800 314.800 C 276.800 314.360,276.710 314.000,276.600 314.000 C 276.490 314.000,276.400 314.255,276.400 314.567 M262.800 328.167 C 262.800 328.478,262.575 328.824,262.300 328.935 C 262.001 329.056,262.082 329.150,262.500 329.168 C 262.944 329.188,263.200 328.907,263.200 328.400 C 263.200 327.960,263.110 327.600,263.000 327.600 C 262.890 327.600,262.800 327.855,262.800 328.167 M164.089 355.400 C 164.160 355.876,164.571 356.252,165.104 356.328 C 165.667 356.408,166.000 356.734,166.000 357.204 C 166.000 357.616,166.180 358.064,166.400 358.200 C 166.899 358.508,166.901 358.317,166.410 357.026 C 166.195 356.462,165.754 356.000,165.430 356.000 C 165.105 356.000,164.644 355.685,164.405 355.300 C 164.008 354.660,163.981 354.669,164.089 355.400 M235.600 355.571 C 235.600 355.775,235.285 356.024,234.900 356.124 C 234.373 356.262,234.423 356.319,235.100 356.354 C 235.654 356.382,236.000 356.169,236.000 355.800 C 236.000 355.470,235.910 355.200,235.800 355.200 C 235.690 355.200,235.600 355.367,235.600 355.571 M173.632 364.267 C 173.571 365.170,174.092 366.000,174.719 366.000 C 175.296 366.000,175.296 365.955,174.722 365.500 C 174.376 365.225,173.996 364.730,173.878 364.400 C 173.760 364.070,173.649 364.010,173.632 364.267 M177.704 369.317 C 177.791 369.583,178.254 369.858,178.731 369.928 C 179.268 370.007,179.600 370.342,179.600 370.804 C 179.600 371.216,179.811 371.683,180.068 371.842 C 180.387 372.039,180.451 371.909,180.268 371.433 C 180.121 371.049,180.000 370.582,180.000 370.397 C 180.000 370.211,179.448 369.783,178.772 369.446 C 177.926 369.024,177.594 368.984,177.704 369.317 M222.000 369.171 C 222.000 369.375,221.685 369.624,221.300 369.724 C 220.773 369.862,220.823 369.919,221.500 369.954 C 222.054 369.982,222.400 369.769,222.400 369.400 C 222.400 369.070,222.310 368.800,222.200 368.800 C 222.090 368.800,222.000 368.967,222.000 369.171 M187.232 377.867 C 187.171 378.770,187.692 379.600,188.319 379.600 C 188.896 379.600,188.896 379.555,188.322 379.100 C 187.976 378.825,187.596 378.330,187.478 378.000 C 187.360 377.670,187.249 377.610,187.232 377.867 M191.304 382.917 C 191.391 383.183,191.854 383.458,192.331 383.528 C 192.868 383.607,193.200 383.942,193.200 384.404 C 193.200 384.816,193.411 385.283,193.668 385.442 C 193.987 385.639,194.051 385.509,193.868 385.033 C 193.721 384.649,193.600 384.182,193.600 383.997 C 193.600 383.811,193.048 383.383,192.372 383.046 C 191.526 382.624,191.194 382.584,191.304 382.917 M208.400 382.771 C 208.400 382.975,208.085 383.224,207.700 383.324 C 207.173 383.462,207.223 383.519,207.900 383.554 C 208.454 383.582,208.800 383.369,208.800 383.000 C 208.800 382.670,208.710 382.400,208.600 382.400 C 208.490 382.400,208.400 382.567,208.400 382.771 " stroke="none" fill="#0477fc" fill-rule="evenodd"></path><path id="path1" d="M391.200 0.410 C 391.200 0.635,390.750 0.991,390.200 1.200 C 389.650 1.409,389.200 1.834,389.200 2.143 C 389.200 2.453,388.840 2.801,388.400 2.916 C 387.932 3.038,387.600 3.462,387.600 3.935 C 387.600 4.470,387.295 4.788,386.700 4.872 C 386.130 4.953,385.754 5.321,385.675 5.875 C 385.598 6.421,385.221 6.798,384.675 6.875 C 384.121 6.954,383.753 7.330,383.672 7.900 C 383.580 8.551,383.276 8.800,382.572 8.800 C 381.809 8.800,381.600 9.009,381.600 9.772 C 381.600 10.476,381.351 10.780,380.700 10.872 C 380.122 10.954,379.754 11.322,379.672 11.900 C 379.588 12.495,379.270 12.800,378.735 12.800 C 378.279 12.800,377.839 13.128,377.729 13.551 C 377.621 13.964,377.097 14.501,376.566 14.743 C 376.035 14.985,375.600 15.436,375.600 15.745 C 375.600 16.054,375.240 16.401,374.800 16.516 C 374.332 16.638,374.000 17.062,374.000 17.535 C 374.000 18.070,373.695 18.388,373.100 18.472 C 372.530 18.553,372.154 18.921,372.075 19.475 C 371.998 20.021,371.621 20.398,371.075 20.475 C 370.530 20.553,370.153 20.930,370.075 21.475 C 369.998 22.021,369.621 22.398,369.075 22.475 C 368.530 22.553,368.153 22.930,368.075 23.475 C 367.998 24.021,367.621 24.398,367.075 24.475 C 366.521 24.554,366.153 24.930,366.072 25.500 C 365.988 26.095,365.670 26.400,365.135 26.400 C 364.679 26.400,364.239 26.728,364.129 27.151 C 364.021 27.564,363.497 28.101,362.966 28.343 C 362.435 28.585,362.000 29.036,362.000 29.345 C 362.000 29.654,361.640 30.001,361.200 30.116 C 360.732 30.238,360.400 30.662,360.400 31.135 C 360.400 31.670,360.095 31.988,359.500 32.072 C 358.930 32.153,358.554 32.521,358.475 33.075 C 358.398 33.621,358.021 33.998,357.475 34.075 C 356.930 34.153,356.553 34.530,356.475 35.075 C 356.398 35.621,356.021 35.998,355.475 36.075 C 354.930 36.153,354.553 36.530,354.475 37.075 C 354.398 37.621,354.021 37.998,353.475 38.075 C 352.921 38.154,352.553 38.530,352.472 39.100 C 352.380 39.751,352.076 40.000,351.372 40.000 C 350.687 40.000,350.400 40.222,350.400 40.753 C 350.400 41.179,350.039 41.601,349.570 41.724 C 349.114 41.843,348.643 42.314,348.524 42.770 C 348.401 43.239,347.979 43.600,347.553 43.600 C 347.022 43.600,346.800 43.887,346.800 44.572 C 346.800 45.276,346.551 45.580,345.900 45.672 C 345.330 45.753,344.954 46.121,344.875 46.675 C 344.798 47.221,344.421 47.598,343.875 47.675 C 343.330 47.753,342.953 48.130,342.875 48.675 C 342.798 49.221,342.421 49.598,341.875 49.675 C 341.330 49.753,340.953 50.130,340.875 50.675 C 340.798 51.221,340.421 51.598,339.875 51.675 C 339.321 51.754,338.953 52.130,338.872 52.700 C 338.788 53.295,338.470 53.600,337.935 53.600 C 337.462 53.600,337.038 53.932,336.916 54.400 C 336.801 54.840,336.454 55.200,336.145 55.200 C 335.836 55.200,335.378 55.650,335.127 56.200 C 334.877 56.750,334.340 57.200,333.936 57.200 C 333.423 57.200,333.200 57.495,333.200 58.172 C 333.200 58.876,332.951 59.180,332.300 59.272 C 331.730 59.353,331.354 59.721,331.275 60.275 C 331.198 60.821,330.821 61.198,330.275 61.275 C 329.730 61.353,329.353 61.730,329.275 62.275 C 329.198 62.821,328.821 63.198,328.275 63.275 C 327.730 63.353,327.353 63.730,327.275 64.275 C 327.198 64.821,326.821 65.198,326.275 65.275 C 325.721 65.354,325.353 65.730,325.272 66.300 C 325.188 66.895,324.870 67.200,324.335 67.200 C 323.862 67.200,323.438 67.532,323.316 68.000 C 323.201 68.440,322.854 68.800,322.545 68.800 C 322.236 68.800,321.785 69.235,321.543 69.766 C 321.301 70.297,320.764 70.821,320.351 70.929 C 319.928 71.039,319.600 71.479,319.600 71.935 C 319.600 72.470,319.295 72.788,318.700 72.872 C 318.130 72.953,317.754 73.321,317.675 73.875 C 317.598 74.421,317.221 74.798,316.675 74.875 C 316.130 74.953,315.753 75.330,315.675 75.875 C 315.598 76.421,315.221 76.798,314.675 76.875 C 314.130 76.953,313.753 77.330,313.675 77.875 C 313.598 78.421,313.221 78.798,312.675 78.875 C 312.121 78.954,311.753 79.330,311.672 79.900 C 311.588 80.495,311.270 80.800,310.735 80.800 C 310.262 80.800,309.838 81.132,309.716 81.600 C 309.601 82.040,309.253 82.400,308.943 82.400 C 308.634 82.400,308.218 82.825,308.021 83.345 C 307.823 83.865,307.288 84.388,306.831 84.508 C 306.335 84.638,306.000 85.052,306.000 85.535 C 306.000 86.070,305.695 86.388,305.100 86.472 C 304.522 86.554,304.154 86.922,304.072 87.500 C 303.980 88.151,303.676 88.400,302.972 88.400 C 302.209 88.400,302.000 88.609,302.000 89.372 C 302.000 90.076,301.751 90.380,301.100 90.472 C 300.530 90.553,300.154 90.921,300.075 91.475 C 299.998 92.021,299.621 92.398,299.075 92.475 C 298.521 92.554,298.153 92.930,298.072 93.500 C 297.988 94.095,297.670 94.400,297.135 94.400 C 296.675 94.400,296.239 94.729,296.126 95.163 C 296.016 95.583,295.583 96.016,295.163 96.126 C 294.729 96.239,294.400 96.675,294.400 97.135 C 294.400 97.670,294.095 97.988,293.500 98.072 C 292.930 98.153,292.554 98.521,292.475 99.075 C 292.398 99.621,292.021 99.998,291.475 100.075 C 290.930 100.153,290.553 100.530,290.475 101.075 C 290.398 101.621,290.021 101.998,289.475 102.075 C 288.930 102.153,288.553 102.530,288.475 103.075 C 288.398 103.621,288.021 103.998,287.475 104.075 C 286.921 104.154,286.553 104.530,286.472 105.100 C 286.389 105.683,286.069 106.000,285.562 106.000 C 285.108 106.000,284.629 106.396,284.421 106.945 C 284.223 107.465,283.688 107.988,283.231 108.108 C 282.774 108.227,282.400 108.591,282.400 108.916 C 282.400 109.241,282.040 109.601,281.600 109.716 C 281.132 109.838,280.800 110.262,280.800 110.735 C 280.800 111.270,280.495 111.588,279.900 111.672 C 279.330 111.753,278.954 112.121,278.875 112.675 C 278.798 113.221,278.421 113.598,277.875 113.675 C 277.330 113.753,276.953 114.130,276.875 114.675 C 276.798 115.221,276.421 115.598,275.875 115.675 C 275.330 115.753,274.953 116.130,274.875 116.675 C 274.798 117.221,274.421 117.598,273.875 117.675 C 273.321 117.754,272.953 118.130,272.872 118.700 C 272.788 119.295,272.470 119.600,271.935 119.600 C 271.479 119.600,271.039 119.928,270.929 120.351 C 270.821 120.764,270.297 121.301,269.766 121.543 C 269.235 121.785,268.800 122.236,268.800 122.545 C 268.800 122.854,268.440 123.201,268.000 123.316 C 267.532 123.438,267.200 123.862,267.200 124.335 C 267.200 124.870,266.895 125.188,266.300 125.272 C 265.730 125.353,265.354 125.721,265.275 126.275 C 265.198 126.821,264.821 127.198,264.275 127.275 C 263.730 127.353,263.353 127.730,263.275 128.275 C 263.198 128.821,262.821 129.198,262.275 129.275 C 261.730 129.353,261.353 129.730,261.275 130.275 C 261.198 130.821,260.821 131.198,260.275 131.275 C 259.721 131.354,259.353 131.730,259.272 132.300 C 259.180 132.951,258.876 133.200,258.172 133.200 C 257.495 133.200,257.200 133.423,257.200 133.936 C 257.200 134.340,256.750 134.877,256.200 135.127 C 255.650 135.378,255.200 135.836,255.200 136.145 C 255.200 136.454,254.840 136.801,254.400 136.916 C 253.932 137.038,253.600 137.462,253.600 137.935 C 253.600 138.470,253.295 138.788,252.700 138.872 C 252.130 138.953,251.754 139.321,251.675 139.875 C 251.598 140.421,251.221 140.798,250.675 140.875 C 250.130 140.953,249.753 141.330,249.675 141.875 C 249.598 142.421,249.221 142.798,248.675 142.875 C 248.130 142.953,247.753 143.330,247.675 143.875 C 247.598 144.421,247.221 144.798,246.675 144.875 C 246.121 144.954,245.753 145.330,245.672 145.900 C 245.580 146.551,245.276 146.800,244.572 146.800 C 243.887 146.800,243.600 147.022,243.600 147.553 C 243.600 147.979,243.239 148.401,242.770 148.524 C 242.314 148.643,241.843 149.114,241.724 149.570 C 241.601 150.039,241.179 150.400,240.753 150.400 C 240.222 150.400,240.000 150.687,240.000 151.372 C 240.000 152.076,239.751 152.380,239.100 152.472 C 238.530 152.553,238.154 152.921,238.075 153.475 C 237.998 154.021,237.621 154.398,237.075 154.475 C 236.530 154.553,236.153 154.930,236.075 155.475 C 235.998 156.021,235.621 156.398,235.075 156.475 C 234.530 156.553,234.153 156.930,234.075 157.475 C 233.998 158.021,233.621 158.398,233.075 158.475 C 232.521 158.554,232.153 158.930,232.072 159.500 C 231.988 160.095,231.670 160.400,231.135 160.400 C 230.662 160.400,230.238 160.732,230.116 161.200 C 230.001 161.640,229.654 162.000,229.345 162.000 C 229.036 162.000,228.585 162.435,228.343 162.966 C 228.101 163.497,227.564 164.021,227.151 164.129 C 226.728 164.239,226.400 164.679,226.400 165.135 C 226.400 165.670,226.095 165.988,225.500 166.072 C 224.930 166.153,224.554 166.521,224.475 167.075 C 224.398 167.621,224.021 167.998,223.475 168.075 C 222.930 168.153,222.553 168.530,222.475 169.075 C 222.398 169.621,222.021 169.998,221.475 170.075 C 220.930 170.153,220.553 170.530,220.475 171.075 C 220.398 171.621,220.021 171.998,219.475 172.075 C 218.921 172.154,218.553 172.530,218.472 173.100 C 218.388 173.695,218.070 174.000,217.535 174.000 C 217.062 174.000,216.638 174.332,216.516 174.800 C 216.401 175.240,216.054 175.600,215.745 175.600 C 215.436 175.600,214.985 176.035,214.743 176.566 C 214.501 177.097,213.964 177.621,213.551 177.729 C 213.128 177.839,212.800 178.279,212.800 178.735 C 212.800 179.270,212.495 179.588,211.900 179.672 C 211.330 179.753,210.954 180.121,210.875 180.675 C 210.798 181.221,210.421 181.598,209.875 181.675 C 209.330 181.753,208.953 182.130,208.875 182.675 C 208.798 183.221,208.421 183.598,207.875 183.675 C 207.330 183.753,206.953 184.130,206.875 184.675 C 206.798 185.221,206.421 185.598,205.875 185.675 C 205.321 185.754,204.953 186.130,204.872 186.700 C 204.788 187.295,204.470 187.600,203.935 187.600 C 203.462 187.600,203.038 187.932,202.916 188.400 C 202.801 188.840,202.453 189.200,202.143 189.200 C 201.834 189.200,201.409 189.650,201.200 190.200 C 200.991 190.750,200.635 191.200,200.410 191.200 C 200.184 191.200,200.004 191.875,200.008 192.700 C 200.016 194.158,199.169 195.041,169.610 224.400 C 102.143 291.409,103.138 290.396,102.904 292.300 C 102.734 293.690,102.815 294.000,103.348 294.000 C 103.777 294.000,104.000 294.342,104.000 295.000 C 104.000 295.800,104.200 296.000,105.000 296.000 C 105.737 296.000,106.000 296.213,106.000 296.810 C 106.000 297.306,106.388 297.767,107.000 298.000 C 107.612 298.233,108.000 298.694,108.000 299.190 C 108.000 299.724,108.264 300.000,108.772 300.000 C 109.263 300.000,109.591 300.321,109.672 300.884 C 109.753 301.442,110.168 301.854,110.800 302.002 C 111.350 302.131,111.803 302.408,111.806 302.618 C 111.817 303.302,112.446 304.019,112.828 303.782 C 113.034 303.656,113.383 304.030,113.606 304.615 C 113.828 305.199,114.351 305.767,114.768 305.876 C 115.185 305.985,115.616 306.417,115.726 306.837 C 115.842 307.281,116.275 307.600,116.763 307.600 C 117.389 307.600,117.600 307.852,117.600 308.600 C 117.600 309.400,117.800 309.600,118.600 309.600 C 119.348 309.600,119.600 309.811,119.600 310.437 C 119.600 310.940,119.922 311.359,120.404 311.485 C 120.847 311.601,121.316 312.124,121.448 312.648 C 121.590 313.215,121.981 313.600,122.416 313.600 C 122.867 313.600,123.193 313.943,123.272 314.500 C 123.355 315.086,123.722 315.446,124.322 315.531 C 124.853 315.606,125.398 316.069,125.609 316.623 C 125.840 317.230,126.189 317.503,126.555 317.362 C 126.944 317.213,127.180 317.447,127.268 318.069 C 127.341 318.581,127.794 319.173,128.275 319.384 C 128.757 319.596,129.235 320.091,129.338 320.484 C 129.441 320.878,129.881 321.200,130.316 321.200 C 130.780 321.200,131.196 321.543,131.324 322.030 C 131.443 322.486,131.914 322.957,132.370 323.076 C 132.857 323.204,133.200 323.620,133.200 324.084 C 133.200 324.521,133.536 324.963,133.951 325.071 C 134.364 325.179,134.901 325.703,135.143 326.234 C 135.385 326.765,135.844 327.200,136.164 327.200 C 136.483 327.200,136.802 327.605,136.872 328.100 C 136.955 328.686,137.322 329.046,137.922 329.131 C 138.463 329.207,138.999 329.671,139.221 330.255 C 139.429 330.801,139.779 331.136,140.000 331.000 C 140.221 330.864,140.583 331.230,140.806 331.815 C 141.028 332.399,141.551 332.967,141.968 333.076 C 142.385 333.185,142.816 333.617,142.926 334.037 C 143.037 334.464,143.474 334.800,143.919 334.800 C 144.433 334.800,144.802 335.153,144.964 335.800 C 145.126 336.446,145.496 336.800,146.008 336.800 C 146.524 336.800,146.800 337.069,146.800 337.573 C 146.800 337.998,147.141 338.454,147.557 338.586 C 147.973 338.718,148.410 339.194,148.527 339.643 C 148.645 340.092,149.114 340.557,149.570 340.676 C 150.027 340.796,150.400 341.193,150.400 341.559 C 150.400 341.936,150.937 342.427,151.637 342.691 C 152.317 342.948,152.769 343.327,152.641 343.534 C 152.365 343.980,153.361 344.905,153.726 344.541 C 153.864 344.402,154.165 344.781,154.394 345.383 C 154.622 345.985,155.151 346.567,155.568 346.676 C 155.985 346.785,156.416 347.217,156.526 347.637 C 156.637 348.064,157.074 348.400,157.519 348.400 C 158.033 348.400,158.402 348.753,158.564 349.400 C 158.726 350.046,159.096 350.400,159.608 350.400 C 160.043 350.400,160.400 350.668,160.400 350.997 C 160.400 351.325,160.760 351.818,161.200 352.093 C 161.640 352.368,162.000 352.824,162.000 353.106 C 162.000 353.389,162.439 353.787,162.976 353.991 C 163.512 354.195,164.149 354.730,164.390 355.181 C 164.631 355.631,165.101 356.000,165.435 356.000 C 165.769 356.000,166.222 356.518,166.443 357.152 C 166.685 357.844,167.111 358.283,167.513 358.252 C 167.880 358.223,168.185 358.470,168.190 358.800 C 168.196 359.130,168.595 359.573,169.078 359.785 C 169.561 359.997,170.059 360.582,170.186 361.085 C 170.323 361.631,170.718 362.000,171.164 362.000 C 171.630 362.000,172.008 362.379,172.164 363.000 C 172.326 363.646,172.696 364.000,173.208 364.000 C 173.653 364.000,174.000 364.269,174.000 364.613 C 174.000 364.949,174.284 365.334,174.631 365.467 C 174.977 365.600,175.423 366.135,175.621 366.655 C 175.818 367.175,176.234 367.600,176.544 367.600 C 176.854 367.600,177.403 368.050,177.763 368.600 C 178.124 369.150,178.694 369.600,179.030 369.600 C 179.366 369.600,179.826 370.129,180.051 370.776 C 180.296 371.477,180.670 371.871,180.978 371.753 C 181.271 371.641,181.591 371.924,181.718 372.407 C 181.840 372.876,182.299 373.353,182.736 373.467 C 183.174 373.582,183.641 374.109,183.774 374.638 C 183.921 375.226,184.307 375.600,184.764 375.600 C 185.230 375.600,185.608 375.979,185.764 376.600 C 185.926 377.246,186.296 377.600,186.808 377.600 C 187.243 377.600,187.600 377.864,187.600 378.186 C 187.600 378.508,187.960 378.965,188.400 379.200 C 188.840 379.435,189.200 379.901,189.200 380.235 C 189.200 380.569,189.735 381.028,190.388 381.256 C 191.042 381.484,191.537 381.867,191.488 382.108 C 191.440 382.349,191.876 382.784,192.457 383.074 C 193.038 383.365,193.625 384.045,193.761 384.587 C 193.915 385.199,194.214 385.493,194.552 385.363 C 194.875 385.239,195.185 385.500,195.318 386.007 C 195.440 386.476,195.899 386.953,196.336 387.067 C 196.774 387.182,197.243 387.717,197.379 388.257 C 197.732 389.665,201.964 389.537,202.595 388.100 C 202.812 387.605,203.278 387.200,203.631 387.200 C 203.983 387.200,204.481 386.740,204.737 386.177 C 204.994 385.615,205.350 385.245,205.528 385.356 C 205.707 385.466,206.166 385.026,206.549 384.378 C 206.932 383.730,207.502 383.200,207.815 383.200 C 208.128 383.200,208.494 382.763,208.628 382.230 C 208.801 381.540,209.096 381.303,209.647 381.409 C 210.073 381.491,210.316 381.388,210.187 381.179 C 210.058 380.971,210.138 380.800,210.364 380.800 C 210.590 380.800,210.687 380.571,210.579 380.291 C 210.465 379.991,210.897 379.588,211.629 379.312 C 212.313 379.053,212.768 378.672,212.640 378.465 C 212.512 378.257,212.855 377.794,213.403 377.435 C 213.952 377.075,214.400 376.537,214.400 376.237 C 214.400 375.938,214.773 375.596,215.230 375.476 C 215.686 375.357,216.157 374.886,216.276 374.430 C 216.396 373.973,216.803 373.600,217.182 373.600 C 217.561 373.600,218.081 373.140,218.337 372.577 C 218.594 372.015,218.950 371.645,219.128 371.756 C 219.307 371.866,219.766 371.426,220.149 370.778 C 220.532 370.130,221.102 369.600,221.415 369.600 C 221.728 369.600,222.096 369.156,222.232 368.613 C 222.369 368.071,222.597 367.649,222.740 367.677 C 223.290 367.783,224.385 367.099,224.185 366.775 C 224.069 366.588,224.526 366.149,225.200 365.800 C 225.874 365.451,226.332 365.013,226.217 364.827 C 226.101 364.640,226.455 364.194,227.003 363.835 C 227.552 363.475,228.000 362.937,228.000 362.637 C 228.000 362.338,228.373 361.996,228.830 361.876 C 229.286 361.757,229.757 361.286,229.876 360.830 C 229.996 360.373,230.403 360.000,230.782 360.000 C 231.161 360.000,231.681 359.540,231.937 358.977 C 232.194 358.415,232.550 358.045,232.728 358.156 C 232.907 358.266,233.366 357.826,233.749 357.178 C 234.132 356.530,234.693 356.000,234.996 356.000 C 235.298 356.000,235.651 355.669,235.780 355.264 C 235.908 354.859,236.454 354.292,236.993 354.004 C 237.532 353.715,237.883 353.334,237.773 353.157 C 237.664 352.979,238.126 352.549,238.800 352.200 C 239.474 351.851,239.912 351.381,239.773 351.156 C 239.634 350.931,239.900 350.647,240.364 350.525 C 240.829 350.404,241.316 349.876,241.448 349.352 C 241.579 348.828,241.927 348.400,242.221 348.400 C 242.514 348.400,243.038 347.995,243.385 347.500 C 243.732 347.005,244.232 346.600,244.496 346.600 C 244.760 346.600,245.201 346.150,245.475 345.600 C 245.749 345.050,246.204 344.600,246.487 344.600 C 246.769 344.600,247.178 344.193,247.396 343.696 C 247.614 343.199,248.100 342.695,248.476 342.576 C 248.852 342.457,249.257 342.052,249.376 341.676 C 249.495 341.300,249.999 340.808,250.496 340.582 C 250.993 340.356,251.354 339.948,251.297 339.677 C 251.240 339.405,251.645 339.011,252.197 338.801 C 252.812 338.567,253.200 338.106,253.200 337.610 C 253.200 337.069,253.463 336.800,253.992 336.800 C 254.496 336.800,254.873 336.449,255.027 335.835 C 255.167 335.278,255.658 334.772,256.187 334.639 C 256.692 334.512,257.200 334.042,257.318 333.593 C 257.435 333.144,257.757 332.827,258.033 332.889 C 258.309 332.950,258.774 332.550,259.067 332.000 C 259.359 331.450,259.782 331.046,260.007 331.102 C 260.231 331.159,260.619 330.757,260.868 330.210 C 261.117 329.663,261.654 329.110,262.061 328.981 C 262.467 328.852,262.800 328.498,262.800 328.195 C 262.800 327.892,263.295 327.397,263.900 327.095 C 264.505 326.793,264.954 326.330,264.897 326.065 C 264.840 325.799,265.245 325.411,265.797 325.201 C 266.412 324.967,266.800 324.506,266.800 324.010 C 266.800 323.469,267.063 323.200,267.592 323.200 C 268.096 323.200,268.473 322.849,268.627 322.235 C 268.767 321.678,269.258 321.172,269.787 321.039 C 270.292 320.912,270.809 320.410,270.936 319.922 C 271.064 319.434,271.294 319.161,271.447 319.314 C 271.881 319.748,272.800 318.793,272.800 317.908 C 272.800 317.360,272.989 317.187,273.412 317.349 C 273.811 317.502,274.181 317.241,274.473 316.600 C 274.720 316.058,275.254 315.510,275.661 315.381 C 276.067 315.252,276.400 314.898,276.400 314.595 C 276.400 314.292,276.895 313.806,277.500 313.516 C 278.105 313.226,278.600 312.722,278.600 312.395 C 278.600 312.068,279.005 311.742,279.500 311.672 C 280.143 311.581,280.400 311.275,280.400 310.600 C 280.400 309.925,280.657 309.619,281.300 309.528 C 281.878 309.446,282.246 309.078,282.328 308.500 C 282.420 307.849,282.724 307.600,283.428 307.600 C 284.133 307.600,284.400 307.381,284.400 306.800 C 284.400 306.269,284.667 306.000,285.192 306.000 C 285.705 306.000,286.074 305.645,286.237 304.997 C 286.389 304.388,286.865 303.899,287.444 303.753 C 288.031 303.606,288.400 303.221,288.400 302.757 C 288.400 302.340,288.674 302.000,289.009 302.000 C 289.343 302.000,289.815 301.565,290.057 301.034 C 290.299 300.503,290.849 299.976,291.278 299.864 C 291.708 299.751,292.157 299.286,292.276 298.830 C 292.399 298.361,292.821 298.000,293.247 298.000 C 293.778 298.000,294.000 297.713,294.000 297.028 C 294.000 296.324,294.249 296.020,294.900 295.928 C 295.478 295.846,295.846 295.478,295.928 294.900 C 295.998 294.405,296.223 294.000,296.428 294.000 C 296.633 294.000,296.800 293.623,296.800 293.162 C 296.800 291.659,298.303 290.059,319.781 268.685 C 331.452 257.072,352.700 235.890,367.000 221.615 C 385.364 203.282,393.294 195.622,394.000 195.530 L 395.000 195.400 395.101 97.700 L 395.202 -0.000 393.201 -0.000 C 392.100 -0.000,391.200 0.184,391.200 0.410 " stroke="none" fill="#6904fc" fill-rule="evenodd"></path><path id="path2" d="M4.800 194.600 L 4.800 389.200 6.800 389.200 C 8.667 389.200,8.800 389.133,8.800 388.200 C 8.800 387.400,9.000 387.200,9.800 387.200 C 10.521 387.200,10.800 386.985,10.800 386.428 C 10.800 385.932,11.122 385.610,11.700 385.528 C 12.278 385.446,12.646 385.078,12.728 384.500 C 12.810 383.922,13.132 383.600,13.628 383.600 C 14.185 383.600,14.400 383.321,14.400 382.600 C 14.400 381.800,14.600 381.600,15.400 381.600 C 16.200 381.600,16.400 381.400,16.400 380.600 C 16.400 379.800,16.600 379.600,17.400 379.600 C 18.200 379.600,18.400 379.400,18.400 378.600 C 18.400 377.800,18.600 377.600,19.400 377.600 C 20.200 377.600,20.400 377.400,20.400 376.600 C 20.400 375.800,20.600 375.600,21.400 375.600 C 22.200 375.600,22.400 375.400,22.400 374.600 C 22.400 373.800,22.600 373.600,23.400 373.600 C 24.121 373.600,24.400 373.385,24.400 372.828 C 24.400 372.332,24.722 372.010,25.300 371.928 C 25.878 371.846,26.246 371.478,26.328 370.900 C 26.410 370.322,26.732 370.000,27.228 370.000 C 27.785 370.000,28.000 369.721,28.000 369.000 C 28.000 368.200,28.200 368.000,29.000 368.000 C 29.800 368.000,30.000 367.800,30.000 367.000 C 30.000 366.200,30.200 366.000,31.000 366.000 C 31.800 366.000,32.000 365.800,32.000 365.000 C 32.000 364.200,32.200 364.000,33.000 364.000 C 33.800 364.000,34.000 363.800,34.000 363.000 C 34.000 362.200,34.200 362.000,35.000 362.000 C 35.800 362.000,36.000 361.800,36.000 361.000 C 36.000 360.200,36.200 360.000,37.000 360.000 C 37.721 360.000,38.000 359.785,38.000 359.228 C 38.000 358.732,38.322 358.410,38.900 358.328 C 39.478 358.246,39.846 357.878,39.928 357.300 C 40.010 356.722,40.332 356.400,40.828 356.400 C 41.385 356.400,41.600 356.121,41.600 355.400 C 41.600 354.600,41.800 354.400,42.600 354.400 C 43.400 354.400,43.600 354.200,43.600 353.400 C 43.600 352.600,43.800 352.400,44.600 352.400 C 45.392 352.400,45.600 352.198,45.600 351.428 C 45.600 350.724,45.849 350.420,46.500 350.328 C 47.078 350.246,47.446 349.878,47.528 349.300 C 47.620 348.649,47.924 348.400,48.628 348.400 C 49.322 348.400,49.600 348.179,49.600 347.628 C 49.600 347.132,49.922 346.810,50.500 346.728 C 51.078 346.646,51.446 346.278,51.528 345.700 C 51.610 345.122,51.932 344.800,52.428 344.800 C 52.985 344.800,53.200 344.521,53.200 343.800 C 53.200 343.000,53.400 342.800,54.200 342.800 C 55.000 342.800,55.200 342.600,55.200 341.800 C 55.200 341.000,55.400 340.800,56.200 340.800 C 57.000 340.800,57.200 340.600,57.200 339.800 C 57.200 339.000,57.400 338.800,58.200 338.800 C 59.000 338.800,59.200 338.600,59.200 337.800 C 59.200 337.000,59.400 336.800,60.200 336.800 C 61.000 336.800,61.200 336.600,61.200 335.800 C 61.200 335.000,61.400 334.800,62.200 334.800 C 62.921 334.800,63.200 334.585,63.200 334.028 C 63.200 333.532,63.522 333.210,64.100 333.128 C 64.678 333.046,65.046 332.678,65.128 332.100 C 65.210 331.522,65.532 331.200,66.028 331.200 C 66.585 331.200,66.800 330.921,66.800 330.200 C 66.800 329.400,67.000 329.200,67.800 329.200 C 68.600 329.200,68.800 329.000,68.800 328.200 C 68.800 327.400,69.000 327.200,69.800 327.200 C 70.600 327.200,70.800 327.000,70.800 326.200 C 70.800 325.400,71.000 325.200,71.800 325.200 C 72.600 325.200,72.800 325.000,72.800 324.200 C 72.800 323.400,73.000 323.200,73.800 323.200 C 74.600 323.200,74.800 323.000,74.800 322.200 C 74.800 321.400,75.000 321.200,75.800 321.200 C 76.521 321.200,76.800 320.985,76.800 320.428 C 76.800 319.932,77.122 319.610,77.700 319.528 C 78.278 319.446,78.646 319.078,78.728 318.500 C 78.810 317.922,79.132 317.600,79.628 317.600 C 80.185 317.600,80.400 317.321,80.400 316.600 C 80.400 315.800,80.600 315.600,81.400 315.600 C 82.200 315.600,82.400 315.400,82.400 314.600 C 82.400 313.800,82.600 313.600,83.400 313.600 C 84.200 313.600,84.400 313.400,84.400 312.600 C 84.400 311.800,84.600 311.600,85.400 311.600 C 86.200 311.600,86.400 311.400,86.400 310.600 C 86.400 309.800,86.600 309.600,87.400 309.600 C 88.200 309.600,88.400 309.400,88.400 308.600 C 88.400 307.800,88.600 307.600,89.400 307.600 C 90.121 307.600,90.400 307.385,90.400 306.828 C 90.400 306.332,90.722 306.010,91.300 305.928 C 91.878 305.846,92.246 305.478,92.328 304.900 C 92.410 304.322,92.732 304.000,93.228 304.000 C 93.785 304.000,94.000 303.721,94.000 303.000 C 94.000 302.200,94.200 302.000,95.000 302.000 C 95.800 302.000,96.000 301.800,96.000 301.000 C 96.000 300.200,96.200 300.000,97.000 300.000 C 97.800 300.000,98.000 299.800,98.000 299.000 C 98.000 298.200,98.200 298.000,99.000 298.000 C 99.800 298.000,100.000 297.800,100.000 297.000 C 100.000 296.200,100.200 296.000,101.000 296.000 C 101.800 296.000,102.000 295.800,102.000 295.000 C 102.000 294.450,102.157 294.000,102.348 294.000 C 102.539 294.000,102.790 293.235,102.904 292.300 C 103.138 290.396,102.143 291.409,169.610 224.400 C 199.169 195.041,200.016 194.158,200.008 192.700 C 200.004 191.875,199.833 191.200,199.628 191.200 C 199.423 191.200,199.198 190.795,199.128 190.300 C 199.046 189.722,198.678 189.354,198.100 189.272 C 197.525 189.191,197.200 188.868,197.200 188.380 C 197.200 187.898,196.830 187.522,196.200 187.364 C 195.574 187.207,195.200 186.830,195.200 186.357 C 195.200 185.816,194.914 185.600,194.200 185.600 C 193.400 185.600,193.200 185.400,193.200 184.600 C 193.200 183.800,193.000 183.600,192.200 183.600 C 191.400 183.600,191.200 183.400,191.200 182.600 C 191.200 181.800,191.000 181.600,190.200 181.600 C 189.400 181.600,189.200 181.400,189.200 180.600 C 189.200 179.800,189.000 179.600,188.200 179.600 C 187.400 179.600,187.200 179.400,187.200 178.600 C 187.200 177.879,186.985 177.600,186.428 177.600 C 185.932 177.600,185.610 177.278,185.528 176.700 C 185.446 176.122,185.078 175.754,184.500 175.672 C 183.943 175.593,183.600 175.267,183.600 174.816 C 183.600 174.372,183.209 173.989,182.600 173.836 C 181.954 173.674,181.600 173.304,181.600 172.792 C 181.600 172.214,181.330 172.000,180.600 172.000 C 179.800 172.000,179.600 171.800,179.600 171.000 C 179.600 170.200,179.400 170.000,178.600 170.000 C 177.800 170.000,177.600 169.800,177.600 169.000 C 177.600 168.200,177.400 168.000,176.600 168.000 C 175.800 168.000,175.600 167.800,175.600 167.000 C 175.600 166.200,175.400 166.000,174.600 166.000 C 173.800 166.000,173.600 165.800,173.600 165.000 C 173.600 164.279,173.385 164.000,172.828 164.000 C 172.332 164.000,172.010 163.678,171.928 163.100 C 171.846 162.522,171.478 162.154,170.900 162.072 C 170.322 161.990,170.000 161.668,170.000 161.172 C 170.000 160.615,169.721 160.400,169.000 160.400 C 168.200 160.400,168.000 160.200,168.000 159.400 C 168.000 158.600,167.800 158.400,167.000 158.400 C 166.200 158.400,166.000 158.200,166.000 157.400 C 166.000 156.600,165.800 156.400,165.000 156.400 C 164.200 156.400,164.000 156.200,164.000 155.400 C 164.000 154.600,163.800 154.400,163.000 154.400 C 162.200 154.400,162.000 154.200,162.000 153.400 C 162.000 152.600,161.800 152.400,161.000 152.400 C 160.200 152.400,160.000 152.200,160.000 151.400 C 160.000 150.679,159.785 150.400,159.228 150.400 C 158.732 150.400,158.410 150.078,158.328 149.500 C 158.246 148.922,157.878 148.554,157.300 148.472 C 156.722 148.390,156.400 148.068,156.400 147.572 C 156.400 147.015,156.121 146.800,155.400 146.800 C 154.600 146.800,154.400 146.600,154.400 145.800 C 154.400 145.000,154.200 144.800,153.400 144.800 C 152.600 144.800,152.400 144.600,152.400 143.800 C 152.400 143.000,152.200 142.800,151.400 142.800 C 150.600 142.800,150.400 142.600,150.400 141.800 C 150.400 141.000,150.200 140.800,149.400 140.800 C 148.600 140.800,148.400 140.600,148.400 139.800 C 148.400 139.079,148.185 138.800,147.628 138.800 C 147.132 138.800,146.810 138.478,146.728 137.900 C 146.647 137.330,146.279 136.954,145.725 136.875 C 145.179 136.798,144.802 136.421,144.725 135.875 C 144.646 135.321,144.270 134.953,143.700 134.872 C 143.122 134.790,142.800 134.468,142.800 133.972 C 142.800 133.415,142.521 133.200,141.800 133.200 C 141.000 133.200,140.800 133.000,140.800 132.200 C 140.800 131.400,140.600 131.200,139.800 131.200 C 139.000 131.200,138.800 131.000,138.800 130.200 C 138.800 129.400,138.600 129.200,137.800 129.200 C 137.000 129.200,136.800 129.000,136.800 128.200 C 136.800 127.400,136.600 127.200,135.800 127.200 C 135.000 127.200,134.800 127.000,134.800 126.200 C 134.800 125.479,134.585 125.200,134.028 125.200 C 133.532 125.200,133.210 124.878,133.128 124.300 C 133.047 123.730,132.679 123.354,132.125 123.275 C 131.579 123.198,131.202 122.821,131.125 122.275 C 131.046 121.721,130.670 121.353,130.100 121.272 C 129.522 121.190,129.200 120.868,129.200 120.372 C 129.200 119.815,128.921 119.600,128.200 119.600 C 127.400 119.600,127.200 119.400,127.200 118.600 C 127.200 117.800,127.000 117.600,126.200 117.600 C 125.400 117.600,125.200 117.400,125.200 116.600 C 125.200 115.800,125.000 115.600,124.200 115.600 C 123.400 115.600,123.200 115.400,123.200 114.600 C 123.200 113.800,123.000 113.600,122.200 113.600 C 121.400 113.600,121.200 113.400,121.200 112.600 C 121.200 111.879,120.985 111.600,120.428 111.600 C 119.932 111.600,119.610 111.278,119.528 110.700 C 119.446 110.122,119.078 109.754,118.500 109.672 C 117.925 109.591,117.600 109.268,117.600 108.780 C 117.600 108.298,117.230 107.922,116.600 107.764 C 115.974 107.607,115.600 107.230,115.600 106.757 C 115.600 106.216,115.314 106.000,114.600 106.000 C 113.800 106.000,113.600 105.800,113.600 105.000 C 113.600 104.200,113.400 104.000,112.600 104.000 C 111.800 104.000,111.600 103.800,111.600 103.000 C 111.600 102.200,111.400 102.000,110.600 102.000 C 109.800 102.000,109.600 101.800,109.600 101.000 C 109.600 100.200,109.400 100.000,108.600 100.000 C 107.800 100.000,107.600 99.800,107.600 99.000 C 107.600 98.279,107.385 98.000,106.828 98.000 C 106.332 98.000,106.010 97.678,105.928 97.100 C 105.846 96.522,105.478 96.154,104.900 96.072 C 104.325 95.991,104.000 95.668,104.000 95.180 C 104.000 94.698,103.630 94.322,103.000 94.164 C 102.374 94.007,102.000 93.630,102.000 93.157 C 102.000 92.616,101.714 92.400,101.000 92.400 C 100.200 92.400,100.000 92.200,100.000 91.400 C 100.000 90.600,99.800 90.400,99.000 90.400 C 98.200 90.400,98.000 90.200,98.000 89.400 C 98.000 88.600,97.800 88.400,97.000 88.400 C 96.200 88.400,96.000 88.200,96.000 87.400 C 96.000 86.600,95.800 86.400,95.000 86.400 C 94.200 86.400,94.000 86.200,94.000 85.400 C 94.000 84.679,93.785 84.400,93.228 84.400 C 92.732 84.400,92.410 84.078,92.328 83.500 C 92.246 82.922,91.878 82.554,91.300 82.472 C 90.743 82.393,90.400 82.067,90.400 81.616 C 90.400 81.172,90.009 80.789,89.400 80.636 C 88.754 80.474,88.400 80.104,88.400 79.592 C 88.400 79.014,88.130 78.800,87.400 78.800 C 86.600 78.800,86.400 78.600,86.400 77.800 C 86.400 77.000,86.200 76.800,85.400 76.800 C 84.600 76.800,84.400 76.600,84.400 75.800 C 84.400 75.000,84.200 74.800,83.400 74.800 C 82.600 74.800,82.400 74.600,82.400 73.800 C 82.400 73.000,82.200 72.800,81.400 72.800 C 80.600 72.800,80.400 72.600,80.400 71.800 C 80.400 71.079,80.185 70.800,79.628 70.800 C 79.132 70.800,78.810 70.478,78.728 69.900 C 78.646 69.322,78.278 68.954,77.700 68.872 C 77.122 68.790,76.800 68.468,76.800 67.972 C 76.800 67.415,76.521 67.200,75.800 67.200 C 75.000 67.200,74.800 67.000,74.800 66.200 C 74.800 65.400,74.600 65.200,73.800 65.200 C 73.000 65.200,72.800 65.000,72.800 64.200 C 72.800 63.400,72.600 63.200,71.800 63.200 C 71.000 63.200,70.800 63.000,70.800 62.200 C 70.800 61.400,70.600 61.200,69.800 61.200 C 69.000 61.200,68.800 61.000,68.800 60.200 C 68.800 59.400,68.600 59.200,67.800 59.200 C 67.000 59.200,66.800 59.000,66.800 58.200 C 66.800 57.479,66.585 57.200,66.028 57.200 C 65.532 57.200,65.210 56.878,65.128 56.300 C 65.046 55.722,64.678 55.354,64.100 55.272 C 63.522 55.190,63.200 54.868,63.200 54.372 C 63.200 53.815,62.921 53.600,62.200 53.600 C 61.400 53.600,61.200 53.400,61.200 52.600 C 61.200 51.800,61.000 51.600,60.200 51.600 C 59.400 51.600,59.200 51.400,59.200 50.600 C 59.200 49.800,59.000 49.600,58.200 49.600 C 57.400 49.600,57.200 49.400,57.200 48.600 C 57.200 47.800,57.000 47.600,56.200 47.600 C 55.400 47.600,55.200 47.400,55.200 46.600 C 55.200 45.800,55.000 45.600,54.200 45.600 C 53.400 45.600,53.200 45.400,53.200 44.600 C 53.200 43.879,52.985 43.600,52.428 43.600 C 51.932 43.600,51.610 43.278,51.528 42.700 C 51.446 42.122,51.078 41.754,50.500 41.672 C 49.922 41.590,49.600 41.268,49.600 40.772 C 49.600 40.215,49.321 40.000,48.600 40.000 C 47.800 40.000,47.600 39.800,47.600 39.000 C 47.600 38.200,47.400 38.000,46.600 38.000 C 45.800 38.000,45.600 37.800,45.600 37.000 C 45.600 36.200,45.400 36.000,44.600 36.000 C 43.800 36.000,43.600 35.800,43.600 35.000 C 43.600 34.200,43.400 34.000,42.600 34.000 C 41.800 34.000,41.600 33.800,41.600 33.000 C 41.600 32.279,41.385 32.000,40.828 32.000 C 40.332 32.000,40.010 31.678,39.928 31.100 C 39.847 30.530,39.479 30.154,38.925 30.075 C 38.379 29.998,38.002 29.621,37.925 29.075 C 37.846 28.521,37.470 28.153,36.900 28.072 C 36.322 27.990,36.000 27.668,36.000 27.172 C 36.000 26.615,35.721 26.400,35.000 26.400 C 34.200 26.400,34.000 26.200,34.000 25.400 C 34.000 24.600,33.800 24.400,33.000 24.400 C 32.200 24.400,32.000 24.200,32.000 23.400 C 32.000 22.600,31.800 22.400,31.000 22.400 C 30.200 22.400,30.000 22.200,30.000 21.400 C 30.000 20.600,29.800 20.400,29.000 20.400 C 28.200 20.400,28.000 20.200,28.000 19.400 C 28.000 18.679,27.785 18.400,27.228 18.400 C 26.732 18.400,26.410 18.078,26.328 17.500 C 26.247 16.930,25.879 16.554,25.325 16.475 C 24.779 16.398,24.402 16.021,24.325 15.475 C 24.246 14.921,23.870 14.553,23.300 14.472 C 22.722 14.390,22.400 14.068,22.400 13.572 C 22.400 13.015,22.121 12.800,21.400 12.800 C 20.600 12.800,20.400 12.600,20.400 11.800 C 20.400 11.000,20.200 10.800,19.400 10.800 C 18.600 10.800,18.400 10.600,18.400 9.800 C 18.400 9.000,18.200 8.800,17.400 8.800 C 16.600 8.800,16.400 8.600,16.400 7.800 C 16.400 7.000,16.200 6.800,15.400 6.800 C 14.600 6.800,14.400 6.600,14.400 5.800 C 14.400 5.079,14.185 4.800,13.628 4.800 C 13.132 4.800,12.810 4.478,12.728 3.900 C 12.646 3.322,12.278 2.954,11.700 2.872 C 11.125 2.791,10.800 2.468,10.800 1.980 C 10.800 1.498,10.430 1.122,9.800 0.964 C 9.250 0.826,8.800 0.553,8.800 0.357 C 8.800 0.160,7.900 0.000,6.800 0.000 L 4.800 0.000 4.800 194.600 " stroke="none" fill="#ee04bc" fill-rule="evenodd"></path></g></svg>