<?xml version="1.0" standalone="no"?>
<!DOCTYPE svg PUBLIC "-//W3C//DTD SVG 20010904//EN"
 "http://www.w3.org/TR/2001/REC-SVG-20010904/DTD/svg10.dtd">
<svg version="1.0" xmlns="http://www.w3.org/2000/svg"
 width="500.000000pt" height="500.000000pt" viewBox="0 0 500.000000 500.000000"
 preserveAspectRatio="xMidYMid meet">

<g transform="translate(0.000000,500.000000) scale(0.100000,-0.100000)"
fill="#000000" stroke="none">
<path d="M2430 3560 l0 -830 185 0 185 0 0 830 0 830 -185 0 -185 0 0 -830z"/>
<path d="M1523 2615 c-29 -12 -63 -58 -63 -85 0 -27 33 -78 56 -89 67 -30 131
4 141 75 5 36 1 45 -23 72 -35 37 -69 45 -111 27z m82 -40 c30 -29 32 -68 4
-96 -46 -46 -133 5 -112 67 9 28 43 54 71 54 7 0 24 -11 37 -25z"/>
<path d="M2325 2623 c-32 -8 -64 -44 -71 -78 -7 -38 16 -89 47 -105 31 -17 93
-9 97 13 3 15 -1 17 -22 11 -42 -10 -73 3 -85 36 -20 59 21 108 80 95 22 -5
29 -3 29 9 0 9 -6 16 -14 16 -8 0 -20 2 -28 4 -7 2 -22 1 -33 -1z"/>
<path d="M2794 2623 c-69 -13 -95 -122 -41 -169 30 -26 83 -32 118 -14 14 8
19 21 19 50 0 39 -1 40 -35 40 -24 0 -35 -5 -35 -15 0 -8 9 -15 20 -15 13 0
20 -7 20 -20 0 -33 -63 -28 -90 7 -39 49 -8 106 59 107 22 1 43 4 47 8 6 7
-39 30 -54 27 -4 -1 -17 -4 -28 -6z"/>
<path d="M3090 2619 c-38 -15 -60 -49 -60 -96 0 -84 100 -124 161 -64 39 40
40 89 2 130 -32 35 -67 45 -103 30z m74 -40 c49 -38 24 -119 -36 -119 -41 0
-68 25 -68 64 0 36 7 48 35 64 28 16 39 15 69 -9z"/>
<path d="M3990 2614 c0 -10 13 -14 45 -14 48 0 53 -5 31 -35 -7 -11 -30 -46
-50 -77 l-37 -58 81 0 c64 0 80 3 80 15 0 12 -13 15 -55 15 l-56 0 52 76 c28
42 49 77 47 78 -1 2 -33 6 -70 9 -54 4 -68 2 -68 -9z"/>
<path d="M1290 2535 c0 -72 -3 -88 -20 -105 -11 -11 -20 -24 -20 -30 0 -17 20
-11 45 15 23 22 25 32 25 115 0 73 -3 90 -15 90 -12 0 -15 -16 -15 -85z"/>
<path d="M1800 2525 l0 -95 65 0 c51 0 65 3 65 15 0 11 -12 15 -50 15 -47 0
-50 2 -50 25 0 23 4 25 45 25 33 0 45 4 45 15 0 11 -12 15 -46 15 -44 0 -45 1
-42 28 3 25 7 27 51 30 71 5 57 22 -18 22 l-65 0 0 -95z"/>
<path d="M3370 2527 c0 -80 3 -97 15 -97 11 0 15 12 15 52 l0 52 32 -44 32
-43 15 23 c9 13 24 33 33 44 17 20 17 19 18 -31 0 -40 4 -53 15 -53 12 0 15
17 15 97 0 53 -4 93 -8 88 -5 -6 -25 -34 -46 -62 -21 -29 -40 -53 -42 -53 -2
0 -24 28 -49 62 l-45 62 0 -97z"/>
<path d="M3720 2525 l0 -95 65 0 c51 0 65 3 65 15 0 11 -12 15 -50 15 -47 0
-50 2 -50 25 0 23 4 25 40 25 29 0 40 4 40 15 0 11 -11 15 -40 15 -38 0 -40 2
-40 30 0 29 2 30 45 30 25 0 45 5 45 10 0 6 -27 10 -60 10 l-60 0 0 -95z"/>
<path d="M2427 2108 c-6 -187 -26 -279 -84 -398 -50 -102 -151 -202 -253 -252
-75 -36 -192 -68 -249 -68 l-31 0 0 -184 0 -183 53 4 c510 39 855 365 926 878
6 42 11 141 11 221 l0 144 -184 0 -183 0 -6 -162z"/>
</g>
</svg>
