<?xml version="1.0" standalone="no"?>
<!DOCTYPE svg PUBLIC "-//W3C//DTD SVG 20010904//EN"
 "http://www.w3.org/TR/2001/REC-SVG-20010904/DTD/svg10.dtd">
<svg version="1.0" xmlns="http://www.w3.org/2000/svg"
 width="283.000000pt" height="400.000000pt" viewBox="0 0 283.000000 400.000000"
 preserveAspectRatio="xMidYMid meet">

<g transform="translate(0.000000,400.000000) scale(0.100000,-0.100000)"
fill="#000000" stroke="none">
<path d="M1185 3669 c-33 -4 -78 -14 -101 -22 -22 -8 -51 -13 -65 -10 -19 3
-27 -2 -37 -26 -8 -17 -12 -37 -9 -43 2 -7 -4 -29 -13 -48 -25 -50 -43 -145
-35 -190 5 -33 3 -40 -14 -50 -13 -6 -21 -21 -21 -35 0 -30 16 -33 23 -5 3 11
11 20 17 20 10 0 10 -3 0 -15 -17 -21 -14 -92 5 -121 9 -13 14 -37 13 -52 -2
-19 2 -27 13 -27 9 0 23 -6 31 -13 9 -7 23 -10 32 -6 21 8 20 -8 -3 -54 -29
-57 -48 -68 -141 -80 -149 -19 -279 -84 -358 -180 -63 -77 -152 -226 -151
-253 1 -13 -19 -83 -45 -155 -51 -144 -54 -169 -29 -217 18 -36 33 -49 84 -77
l37 -19 -30 -98 c-39 -133 -73 -306 -97 -498 -30 -241 -32 -273 -22 -360 12
-104 42 -182 94 -248 23 -28 50 -69 59 -89 12 -26 28 -42 55 -53 43 -18 68
-16 168 15 47 15 101 23 165 25 52 1 102 5 110 8 8 3 42 10 75 15 l60 8 1 -85
0 -85 41 -35 c51 -46 230 -136 308 -156 103 -26 244 -12 310 31 29 19 33 36
24 89 -9 49 -52 90 -162 155 -60 35 -76 49 -71 62 4 15 -1 18 -32 18 -69 0
-26 12 125 36 626 98 921 262 921 515 0 97 -41 157 -129 190 -82 31 -178 34
-360 14 -89 -10 -164 -16 -167 -12 -10 10 -23 147 -34 365 -15 309 -61 635
-120 862 -50 189 -77 228 -165 238 -50 5 -54 13 -25 49 31 39 41 90 29 139
-10 38 -9 46 10 70 11 14 24 48 27 75 4 27 11 52 15 55 19 12 7 24 -30 30 -36
6 -39 9 -46 48 -11 56 -7 84 18 133 19 40 19 44 4 61 -9 10 -17 23 -17 29 0
19 -48 43 -85 43 -20 0 -44 4 -53 9 -26 13 -140 19 -207 10z m205 -209 c0 17
4 21 18 15 9 -4 31 -9 49 -12 25 -4 33 -11 37 -34 4 -16 9 -43 12 -60 6 -30 5
-31 -17 -25 -64 17 -69 18 -69 7 0 -6 7 -14 15 -17 12 -5 10 -10 -9 -25 -13
-10 -30 -19 -38 -19 -20 0 -88 36 -81 43 13 13 -30 19 -65 9 -82 -23 -182 -43
-182 -35 0 14 22 43 30 38 10 -6 65 65 75 97 5 14 10 16 20 8 10 -8 17 -6 29
11 l16 23 23 -22 c29 -28 33 -28 41 2 l6 25 45 -26 45 -25 0 22z m128 -245
c-3 -44 -5 -50 -23 -47 -31 6 -55 33 -54 61 0 14 3 20 6 14 2 -7 11 -13 18
-13 15 0 27 38 14 46 -15 9 -10 22 9 26 23 5 34 -25 30 -87z m49 32 c-9 -64
-22 -61 -25 5 -2 55 -1 59 14 47 12 -10 15 -24 11 -52z m-317 23 c-7 -12 -7
-27 -2 -36 8 -14 10 -14 21 0 8 9 11 25 8 36 -6 24 18 27 50 5 18 -12 20 -20
13 -50 -15 -68 -59 -94 -116 -70 -42 17 -68 68 -52 100 15 27 28 35 61 35 25
0 27 -2 17 -20z m-131 0 c10 -5 26 -29 35 -54 10 -25 29 -55 43 -66 54 -43
131 -14 154 58 15 47 27 62 49 62 13 0 19 -10 22 -34 3 -24 0 -32 -9 -29 -15
6 -18 -13 -3 -22 6 -3 10 -13 10 -21 0 -16 -36 -19 -45 -4 -9 14 -28 1 -21
-15 3 -8 -6 -15 -24 -19 -34 -6 -73 -42 -67 -59 2 -7 17 -12 33 -12 50 -1 70
-21 65 -68 -2 -23 -8 -45 -13 -48 -5 -3 -28 -3 -51 2 -25 4 -47 3 -54 -3 -7
-5 -22 -7 -35 -3 -21 5 -20 3 7 -19 16 -14 43 -28 60 -32 16 -3 43 -11 58 -17
26 -11 27 -15 21 -52 -10 -65 -31 -95 -81 -117 -113 -50 -261 11 -323 132 -10
19 -10 25 0 28 27 9 80 65 92 98 13 38 20 41 38 19 15 -18 40 -20 40 -2 0 7
-22 35 -50 62 -27 27 -50 55 -50 61 0 7 -13 17 -29 22 -36 13 -57 65 -42 106
12 31 37 33 66 6 30 -29 56 -17 48 21 -5 25 -2 29 16 29 12 0 30 -4 40 -10z
m367 -120 c19 0 24 -7 29 -44 10 -62 -2 -101 -37 -131 -35 -30 -52 -28 -56 6
-2 13 -8 28 -12 33 -5 5 0 19 12 31 18 19 26 21 50 13 36 -13 44 -5 32 30 -6
16 -21 30 -39 36 -17 6 -31 11 -33 12 -1 0 0 9 4 18 5 12 10 14 17 7 6 -6 21
-11 33 -11z m-76 -79 c0 -12 -30 -22 -43 -14 -7 4 -3 9 9 14 26 10 34 10 34 0z
m180 -190 c39 -27 70 -100 95 -228 35 -179 37 -162 -20 -181 -28 -10 -65 -28
-83 -40 l-32 -23 -1 48 c0 26 -4 57 -8 68 -14 35 -30 -123 -52 -500 -16 -294
-18 -375 -9 -442 20 -138 -16 -193 -127 -193 l-53 0 0 121 c0 132 -15 210 -56
291 -25 49 -89 128 -105 128 -4 0 -48 32 -96 71 -48 39 -140 106 -203 149 -63
44 -127 90 -142 103 l-28 23 38 50 c40 54 106 173 100 180 -3 2 -26 -28 -53
-66 -26 -39 -50 -69 -54 -68 -61 32 -142 64 -203 80 l-77 21 45 88 c77 149
217 263 374 303 30 7 58 12 62 9 4 -2 21 -33 38 -68 35 -73 86 -117 164 -140
159 -47 286 32 286 178 0 18 6 30 18 33 9 3 28 11 42 19 31 18 106 10 140 -14z
m-968 -503 l57 -30 -24 -36 -24 -35 147 -104 c208 -149 377 -286 417 -341 64
-86 99 -263 80 -408 -9 -74 -23 -49 -24 44 -1 34 -5 62 -10 62 -12 0 -21 -26
-21 -64 0 -55 -12 -126 -21 -126 -5 0 -9 45 -9 100 0 55 -4 100 -9 100 -5 0
-15 -26 -21 -57 -6 -32 -15 -71 -19 -88 -14 -56 -26 -20 -25 73 1 69 -2 92
-12 92 -7 0 -17 -23 -24 -57 -15 -79 -29 -121 -42 -129 -8 -5 -9 35 -4 139 6
134 -2 379 -11 350 -3 -8 -11 -9 -26 -3 -12 6 -130 39 -262 75 -336 92 -359
100 -395 141 -16 19 -30 45 -30 58 0 20 91 294 106 317 6 11 132 -34 206 -73z
m1126 -70 c31 -190 40 -292 52 -558 6 -129 13 -251 16 -271 l6 -37 -53 -7
c-30 -3 -62 -9 -71 -11 -13 -4 -18 4 -22 38 -42 303 -81 562 -106 688 -35 182
-33 223 13 247 44 23 99 41 123 42 20 1 23 -9 42 -131z m-160 -450 c23 -178
45 -351 49 -386 l6 -63 -69 3 c-56 2 -68 6 -65 18 13 51 16 92 8 145 -9 61 11
605 22 605 3 0 25 -145 49 -322z m-1082 106 c30 -8 54 -17 54 -19 0 -2 -16
-32 -37 -66 -46 -79 -133 -264 -163 -346 -42 -115 -40 -95 21 212 47 233 47
235 61 235 5 0 34 -7 64 -16z m261 -609 c90 -316 105 -377 98 -402 -5 -21 -11
-24 -32 -20 -14 3 -59 1 -100 -4 -185 -23 -296 -112 -277 -223 4 -24 3 -27 -5
-16 -17 23 -13 122 5 148 33 48 189 102 337 117 56 6 67 10 63 24 -3 9 -10 39
-16 66 -6 28 -24 91 -40 140 -17 50 -45 148 -63 219 -33 127 -34 130 -68 143
l-34 13 33 -5 c28 -4 32 -2 28 13 -3 9 -7 35 -10 57 -4 22 3 6 15 -35 11 -41
41 -147 66 -235z m978 -126 c-16 -5 -120 -31 -230 -58 -110 -27 -209 -52 -220
-56 -15 -6 -17 -5 -9 4 13 14 426 120 464 119 23 0 23 -1 -5 -9z m-518 -51
c-3 -8 -6 -5 -6 6 -1 11 2 17 5 13 3 -3 4 -12 1 -19z m42 -173 c-1 -24 -28 68
-33 112 -5 38 -2 33 14 -27 10 -41 19 -79 19 -85z m-380 -121 c15 -35 11 -37
-28 -18 -18 9 -35 13 -38 10 -3 -3 6 -10 20 -15 36 -14 57 -49 57 -96 0 -57
-10 -68 -51 -58 -30 8 -35 15 -43 51 -12 55 -26 54 -26 -3 0 -53 -15 -60 -24
-12 -3 19 -13 42 -21 53 -12 17 -13 13 -8 -36 l5 -55 -84 -24 c-120 -34 -131
-35 -150 -14 -29 32 -30 65 -6 113 44 85 143 128 299 129 83 1 86 0 98 -25z
m348 -46 c8 -18 6 -29 -7 -48 -9 -14 -25 -37 -34 -52 -10 -17 -25 -28 -39 -28
-22 0 -97 54 -97 69 0 5 26 18 58 29 31 12 66 28 77 36 27 20 30 20 42 -6z
m102 -64 l21 -26 -23 -20 c-22 -19 -18 -20 26 -3 6 2 23 -5 37 -16 23 -19 23
-22 7 -34 -26 -19 -21 -25 12 -14 25 9 39 3 134 -56 103 -64 163 -117 152
-136 -11 -16 -90 -32 -165 -32 -68 1 -86 5 -195 53 -234 102 -265 124 -265
186 0 31 3 35 18 29 68 -29 70 -29 96 -12 14 10 35 35 46 56 29 58 66 67 99
25z m-282 -14 c11 -17 10 -20 -20 -25 -71 -12 -101 -10 -105 6 -2 11 10 18 45
26 69 15 67 15 80 -7z m188 -263 c66 -30 138 -64 160 -75 70 -36 141 -38 285
-7 14 3 5 -5 -20 -16 -62 -30 -167 -36 -250 -15 -146 37 -350 157 -350 205 0
10 8 7 28 -12 15 -15 82 -51 147 -80z"/>
<path d="M986 3198 c10 -13 20 -25 21 -27 1 -1 7 0 13 4 14 9 -16 45 -38 45
-12 0 -12 -4 4 -22z"/>
</g>
</svg>
