<?xml version="1.0" standalone="no"?>
<!DOCTYPE svg PUBLIC "-//W3C//DTD SVG 20010904//EN"
 "http://www.w3.org/TR/2001/REC-SVG-20010904/DTD/svg10.dtd">
<svg version="1.0" xmlns="http://www.w3.org/2000/svg"
 width="225.000000pt" height="225.000000pt" viewBox="0 0 225.000000 225.000000"
 preserveAspectRatio="xMidYMid meet">

<g transform="translate(0.000000,225.000000) scale(0.100000,-0.100000)"
fill="#000000" stroke="none">
<path d="M1012 1959 c-264 -34 -514 -210 -636 -446 l-17 -33 79 0 79 0 38 56
c46 66 133 147 207 191 86 52 89 52 57 -14 -23 -50 -49 -121 -74 -210 -6 -22
-4 -23 67 -23 l74 0 13 51 c20 78 86 202 132 248 67 67 125 65 194 -6 40 -41
107 -170 127 -245 l12 -48 74 0 c71 0 73 1 67 23 -25 89 -50 160 -74 210 -15
31 -25 57 -22 57 3 0 35 -18 72 -40 85 -50 165 -123 214 -195 l38 -55 79 0 79
0 -28 51 c-128 229 -366 393 -626 428 -88 12 -133 12 -225 0z"/>
<path d="M335 1128 l51 -203 52 -3 51 -3 20 68 c11 37 27 96 37 131 9 34 19
61 21 58 2 -2 19 -59 37 -127 l32 -124 51 -3 50 -3 47 188 c26 103 49 196 52
206 5 14 -1 17 -39 17 l-45 0 -21 -92 c-11 -51 -24 -108 -27 -125 -4 -18 -10
-33 -13 -33 -4 0 -15 33 -25 73 -9 39 -24 96 -32 125 l-15 52 -49 0 -48 0 -32
-102 c-47 -155 -47 -155 -53 -138 -3 8 -13 49 -22 90 -34 158 -29 150 -83 150
l-48 0 51 -202z"/>
<path d="M850 1325 c0 -5 68 -282 91 -368 l10 -38 52 3 52 3 36 130 c20 72 39
123 42 115 4 -8 13 -44 22 -80 9 -36 23 -89 31 -117 l15 -53 49 0 c48 0 49 1
59 38 22 81 91 361 91 367 0 3 -19 5 -43 5 l-43 0 -29 -129 c-16 -72 -31 -128
-33 -127 -2 2 -18 59 -35 127 l-33 124 -50 3 -50 3 -16 -53 c-9 -29 -26 -86
-38 -126 -12 -40 -24 -71 -27 -68 -2 2 -17 57 -31 123 l-27 118 -48 3 c-26 2
-47 0 -47 -3z"/>
<path d="M1414 1313 c3 -10 26 -102 52 -205 l46 -188 52 0 51 0 34 123 c31
112 51 162 51 127 0 -7 14 -67 31 -132 l32 -119 50 3 51 3 51 203 51 203 -45
-3 -44 -3 -28 -117 c-15 -64 -29 -122 -31 -129 -2 -7 -19 47 -38 120 l-34 132
-50 -3 -50 -3 -40 -125 -40 -125 -30 128 -30 127 -49 0 c-41 0 -48 -3 -43 -17z"/>
<path d="M376 738 c158 -308 506 -491 849 -448 272 34 526 209 649 448 l17 32
-79 0 -79 0 -38 -56 c-46 -66 -133 -147 -207 -191 -86 -52 -89 -52 -57 14 23
50 49 121 74 211 6 21 4 22 -67 22 l-74 0 -12 -47 c-20 -76 -87 -205 -127
-246 -68 -70 -126 -73 -193 -8 -44 43 -113 172 -133 250 l-13 51 -74 0 c-71 0
-73 -1 -67 -22 25 -90 51 -161 74 -211 32 -66 29 -66 -57 -14 -74 44 -161 125
-207 191 l-38 56 -79 0 -79 0 17 -32z"/>
</g>
</svg>
